<mxfile host="app.diagrams.net" modified="2021-01-12T01:18:39.624Z" agent="5.0 (Windows NT 6.3; Win64; x64) AppleWebKit/537.36 (KHTML, like Gecko) Chrome/86.0.4240.193 Safari/537.36" etag="4YTXUIsyKMB6xTA6B2_S" version="14.1.9" type="github">
  <diagram id="R2lEEEUBdFMjLlhIrx00" name="Page-1">
    <mxGraphModel dx="1605" dy="483" grid="0" gridSize="10" guides="1" tooltips="1" connect="1" arrows="1" fold="1" page="0" pageScale="1" pageWidth="850" pageHeight="1100" math="0" shadow="0" extFonts="Permanent Marker^https://fonts.googleapis.com/css?family=Permanent+Marker">
      <root>
        <mxCell id="0" />
        <mxCell id="1" parent="0" />
        <mxCell id="79mZ_QBFB2y2N6wFymqC-1" value="工程信息表" style="whiteSpace=wrap;html=1;align=center;" parent="1" vertex="1">
          <mxGeometry x="20" y="125" width="100" height="40" as="geometry" />
        </mxCell>
        <mxCell id="79mZ_QBFB2y2N6wFymqC-2" value="施工日志表" style="whiteSpace=wrap;html=1;align=center;" parent="1" vertex="1">
          <mxGeometry x="-103" y="37" width="100" height="40" as="geometry" />
        </mxCell>
        <mxCell id="79mZ_QBFB2y2N6wFymqC-3" value="安全日志表" style="whiteSpace=wrap;html=1;align=center;" parent="1" vertex="1">
          <mxGeometry x="20" y="37" width="100" height="40" as="geometry" />
        </mxCell>
        <mxCell id="79mZ_QBFB2y2N6wFymqC-4" value="安全检查记录表" style="whiteSpace=wrap;html=1;align=center;" parent="1" vertex="1">
          <mxGeometry x="165" y="37" width="100" height="40" as="geometry" />
        </mxCell>
        <mxCell id="79mZ_QBFB2y2N6wFymqC-5" value="工程进度计划表" style="whiteSpace=wrap;html=1;align=center;" parent="1" vertex="1">
          <mxGeometry x="20" y="209" width="100" height="40" as="geometry" />
        </mxCell>
        <mxCell id="79mZ_QBFB2y2N6wFymqC-6" value="工程进度计划明细表" style="whiteSpace=wrap;html=1;align=center;" parent="1" vertex="1">
          <mxGeometry x="20" y="282" width="100" height="40" as="geometry" />
        </mxCell>
        <mxCell id="79mZ_QBFB2y2N6wFymqC-7" value="工程合同信息表" style="whiteSpace=wrap;html=1;align=center;" parent="1" vertex="1">
          <mxGeometry x="-164" y="125" width="100" height="40" as="geometry" />
        </mxCell>
        <mxCell id="79mZ_QBFB2y2N6wFymqC-8" value="工程档案信息表" style="whiteSpace=wrap;html=1;align=center;" parent="1" vertex="1">
          <mxGeometry x="199" y="209" width="100" height="40" as="geometry" />
        </mxCell>
        <mxCell id="Z_PvLo9h6I0z9xEGAcHB-1" value="" style="fontSize=12;html=1;endArrow=ERoneToMany;exitX=0;exitY=0.5;exitDx=0;exitDy=0;" edge="1" parent="1" source="79mZ_QBFB2y2N6wFymqC-1" target="79mZ_QBFB2y2N6wFymqC-7">
          <mxGeometry width="100" height="100" relative="1" as="geometry">
            <mxPoint x="12" y="146" as="sourcePoint" />
            <mxPoint x="-33" y="201" as="targetPoint" />
          </mxGeometry>
        </mxCell>
        <mxCell id="Z_PvLo9h6I0z9xEGAcHB-2" value="" style="fontSize=12;html=1;endArrow=ERoneToMany;exitX=0.5;exitY=0.975;exitDx=0;exitDy=0;exitPerimeter=0;entryX=0.5;entryY=0;entryDx=0;entryDy=0;" edge="1" parent="1" source="79mZ_QBFB2y2N6wFymqC-1" target="79mZ_QBFB2y2N6wFymqC-5">
          <mxGeometry width="100" height="100" relative="1" as="geometry">
            <mxPoint x="185" y="424" as="sourcePoint" />
            <mxPoint x="285" y="324" as="targetPoint" />
          </mxGeometry>
        </mxCell>
        <mxCell id="Z_PvLo9h6I0z9xEGAcHB-3" value="" style="fontSize=12;html=1;endArrow=ERoneToMany;exitX=0.5;exitY=1;exitDx=0;exitDy=0;entryX=0.5;entryY=0;entryDx=0;entryDy=0;" edge="1" parent="1" source="79mZ_QBFB2y2N6wFymqC-5" target="79mZ_QBFB2y2N6wFymqC-6">
          <mxGeometry width="100" height="100" relative="1" as="geometry">
            <mxPoint x="179" y="401" as="sourcePoint" />
            <mxPoint x="279" y="301" as="targetPoint" />
          </mxGeometry>
        </mxCell>
        <mxCell id="Z_PvLo9h6I0z9xEGAcHB-4" value="" style="fontSize=12;html=1;endArrow=ERoneToMany;exitX=0.75;exitY=1;exitDx=0;exitDy=0;entryX=0;entryY=0;entryDx=0;entryDy=0;" edge="1" parent="1" source="79mZ_QBFB2y2N6wFymqC-1" target="79mZ_QBFB2y2N6wFymqC-8">
          <mxGeometry width="100" height="100" relative="1" as="geometry">
            <mxPoint x="300" y="429" as="sourcePoint" />
            <mxPoint x="400" y="329" as="targetPoint" />
          </mxGeometry>
        </mxCell>
        <mxCell id="Z_PvLo9h6I0z9xEGAcHB-5" value="" style="fontSize=12;html=1;endArrow=ERoneToMany;entryX=0.5;entryY=1;entryDx=0;entryDy=0;exitX=0.25;exitY=0;exitDx=0;exitDy=0;" edge="1" parent="1" source="79mZ_QBFB2y2N6wFymqC-1" target="79mZ_QBFB2y2N6wFymqC-2">
          <mxGeometry width="100" height="100" relative="1" as="geometry">
            <mxPoint x="-13" y="102" as="sourcePoint" />
            <mxPoint x="98" y="46" as="targetPoint" />
          </mxGeometry>
        </mxCell>
        <mxCell id="Z_PvLo9h6I0z9xEGAcHB-6" value="" style="fontSize=12;html=1;endArrow=ERoneToMany;entryX=0.5;entryY=1;entryDx=0;entryDy=0;exitX=0.5;exitY=0;exitDx=0;exitDy=0;" edge="1" parent="1" source="79mZ_QBFB2y2N6wFymqC-1" target="79mZ_QBFB2y2N6wFymqC-3">
          <mxGeometry width="100" height="100" relative="1" as="geometry">
            <mxPoint x="69" y="119" as="sourcePoint" />
            <mxPoint x="384" y="95" as="targetPoint" />
          </mxGeometry>
        </mxCell>
        <mxCell id="Z_PvLo9h6I0z9xEGAcHB-8" value="" style="fontSize=12;html=1;endArrow=ERoneToMany;exitX=0.75;exitY=0;exitDx=0;exitDy=0;entryX=0.5;entryY=1;entryDx=0;entryDy=0;" edge="1" parent="1" source="79mZ_QBFB2y2N6wFymqC-1" target="79mZ_QBFB2y2N6wFymqC-4">
          <mxGeometry width="100" height="100" relative="1" as="geometry">
            <mxPoint x="288" y="166" as="sourcePoint" />
            <mxPoint x="388" y="66" as="targetPoint" />
          </mxGeometry>
        </mxCell>
      </root>
    </mxGraphModel>
  </diagram>
</mxfile>
